# xmcd CD database file
#
# Track frame offsets:
#	150
#	16612
#	29825
#	50972
#	67727
#	80835
#	97395
#	122387
#	136947
#	154695
#	178582
#	199112
#
# Disc length: 2836 seconds
#
# Revision: 2
# Processed by: cddbd v1.5.1PL0 Copyright (c) Steve Scherf et al.
# Submitted via: CDex 1.50
#
DISCID=a30b120c
DTITLE=Benoit Blue Boy  - Maux d absence 
DYEAR=2004
DGENRE=Blues
TTITLE0=Boogie woogie tout le temps
TTITLE1=Rentrer à la maison demain
TTITLE2=Collés
TTITLE3=Idiot ou bien crétin
TTITLE4=Toute ma vie
TTITLE5=Demi tour à Jaipur
TTITLE6=C'est plus la peine
TTITLE7=Allons voir
TTITLE8=Prévoyant
TTITLE9=Combien
TTITLE10=Pas prêt
TTITLE11=Royal surfing à Kanota
EXTD=YEAR: 2004
EXTT0=
EXTT1=
EXTT2=
EXTT3=
EXTT4=
EXTT5=
EXTT6=
EXTT7=
EXTT8=
EXTT9=
EXTT10=
EXTT11=
PLAYORDER=
